<?xml version="1.0" standalone="no"?>
<!DOCTYPE svg PUBLIC "-//W3C//DTD SVG 20010904//EN"
 "http://www.w3.org/TR/2001/REC-SVG-20010904/DTD/svg10.dtd">
<svg version="1.0" xmlns="http://www.w3.org/2000/svg"
 width="256.000000pt" height="256.000000pt" viewBox="0 0 256.000000 256.000000"
 preserveAspectRatio="xMidYMid meet">

<g transform="translate(0.000000,256.000000) scale(0.100000,-0.100000)"
fill="#000000" stroke="none">
<path d="M402 2486 l-37 -34 -3 -1159 c-2 -1148 -2 -1158 18 -1191 39 -64 7
-62 901 -62 888 0 855 -2 896 58 17 26 18 86 21 1162 2 784 0 1146 -8 1172 -6
20 -24 48 -41 62 l-31 26 -839 0 -839 0 -38 -34z m1706 -58 c17 -17 17 -2279
0 -2296 -17 -17 -1639 -17 -1656 0 -17 17 -17 2279 0 2296 17 17 1639 17 1656
0z"/>
<path d="M695 2235 c-48 -17 -72 -44 -81 -90 -9 -48 7 -86 46 -112 39 -27 79
-29 126 -7 36 17 39 21 25 43 -7 11 -13 11 -32 -3 -33 -23 -66 -20 -94 9 -65
64 15 158 96 114 15 -7 24 -7 35 2 22 18 17 26 -26 43 -48 19 -44 19 -95 1z"/>
<path d="M890 2133 c45 -110 50 -118 78 -121 28 -3 31 0 55 65 14 37 35 92 46
121 l21 53 -26 -3 c-22 -3 -31 -14 -58 -80 -18 -43 -35 -80 -38 -83 -3 -4 -21
32 -38 79 -30 80 -35 86 -61 86 l-28 0 49 -117z"/>
<path d="M1402 2202 c-76 -27 -122 -69 -161 -145 -28 -55 -35 -81 -39 -145 -8
-137 39 -278 124 -372 19 -21 34 -40 34 -43 0 -3 -44 -13 -97 -23 -181 -34
-220 -93 -204 -309 l6 -80 434 -3 c263 -1 439 2 444 7 15 15 10 235 -6 273
-29 66 -83 97 -207 118 -88 15 -103 24 -73 45 37 26 102 135 124 207 28 90 24
239 -8 309 -28 62 -84 123 -138 149 -63 31 -166 36 -233 12z m209 -88 c48 -27
91 -77 104 -124 l8 -25 -26 27 c-34 36 -68 43 -131 28 -29 -7 -70 -10 -92 -7
-21 3 -60 9 -85 12 -29 5 -54 3 -68 -4 -30 -16 -26 -2 11 43 65 79 186 100
279 50z m-178 -180 c55 -14 66 -14 125 1 75 18 81 16 110 -53 31 -71 37 -140
18 -186 -35 -85 -118 -156 -181 -156 -100 0 -205 127 -205 250 0 65 13 116 36
141 21 23 21 23 97 3z m127 -476 c0 -54 -81 -71 -112 -24 -17 25 -6 31 52 31
33 0 60 -3 60 -7z m-172 -78 c33 -44 77 -63 131 -57 38 4 52 12 84 48 l38 43
86 -17 c66 -13 93 -23 115 -44 26 -25 28 -32 28 -110 l0 -83 -370 0 -370 0 0
80 c0 73 2 82 28 109 21 23 43 33 97 44 101 21 109 21 133 -13z"/>
<path d="M622 888 c-7 -7 -12 -19 -12 -28 0 -40 1 -40 666 -40 571 0 644 2
658 16 19 18 19 20 6 45 -10 18 -28 19 -658 19 -491 0 -651 -3 -660 -12z"/>
<path d="M622 638 c-7 -7 -12 -19 -12 -28 0 -40 1 -40 672 -40 637 0 647 0
658 20 8 14 8 26 0 40 -11 20 -21 20 -658 20 -491 0 -651 -3 -660 -12z"/>
<path d="M614 363 c-14 -54 -26 -53 667 -53 566 0 639 2 653 16 19 19 20 36 4
52 -9 9 -170 12 -665 12 l-653 0 -6 -27z"/>
</g>
</svg>
