<svg width="74" height="26" viewBox="0 0 74 26" fill="none" xmlns="http://www.w3.org/2000/svg">
<path d="M0.0363209 10.2323C-0.111174 10.7645 0.200712 11.3155 0.732937 11.463L9.40605 13.8666C9.93827 14.0141 10.4893 13.7022 10.6368 13.17C10.7843 12.6378 10.4724 12.0867 9.94017 11.9392L2.23074 9.80274L4.36724 2.0933C4.51474 1.56108 4.20285 1.01006 3.67063 0.862562C3.1384 0.715067 2.58738 1.02695 2.43989 1.55918L0.0363209 10.2323ZM73.7902 24.3868C64.1701 11.982 52.5966 4.44871 40.0067 1.9563C27.4178 -0.535915 13.9256 2.03421 0.507418 9.62909L1.49258 11.3696C14.5744 3.96514 27.5822 1.53543 39.6183 3.91822C51.6534 6.3008 62.8299 13.5174 72.2098 25.6125L73.7902 24.3868Z" fill="white"/>
</svg>
