<?xml version="1.0" standalone="no"?>
<!DOCTYPE svg PUBLIC "-//W3C//DTD SVG 20010904//EN"
 "http://www.w3.org/TR/2001/REC-SVG-20010904/DTD/svg10.dtd">
<svg version="1.0" xmlns="http://www.w3.org/2000/svg"
 width="500.000000pt" height="320.000000pt" viewBox="0 0 500.000000 320.000000"
 preserveAspectRatio="xMidYMid meet">
<metadata>
Created by potrace 1.16, written by Peter Selinger 2001-2019
</metadata>
<g transform="translate(0.000000,320.000000) scale(0.100000,-0.100000)"
fill="#000000" stroke="none">
<path d="M2180 2648 c-650 -8 -655 -8 -700 -31 -86 -43 -84 -34 -90 -502 l-5
-410 -49 -32 c-26 -18 -44 -33 -39 -33 4 0 25 11 45 25 20 14 39 25 42 25 13
0 5 -34 -11 -46 -17 -13 -17 -14 0 -8 14 5 17 0 17 -33 0 -21 -6 -45 -12 -52
-10 -11 -10 -13 0 -7 8 5 12 -2 12 -23 0 -23 -8 -34 -35 -51 -19 -12 -35 -24
-35 -27 0 -2 16 5 35 17 l35 22 0 -29 c0 -23 -9 -33 -48 -56 -26 -16 -58 -37
-72 -49 l-25 -20 30 18 c17 9 47 28 67 42 66 43 83 -5 21 -58 l-38 -32 38 27
38 27 -2 -44 c-1 -23 2 -83 5 -131 7 -79 5 -90 -11 -102 -17 -13 -17 -13 2
-12 39 4 28 -31 -21 -65 -26 -18 -56 -41 -68 -51 -12 -11 9 2 47 27 l67 45 0
-37 c0 -33 -5 -40 -48 -65 -26 -16 -58 -37 -72 -49 l-25 -20 30 18 c17 9 47
28 67 42 20 13 42 21 47 17 15 -9 14 -38 -1 -54 -8 -8 -8 -11 -2 -8 8 4 14 -7
19 -30 3 -20 14 -47 22 -60 11 -16 13 -27 6 -31 -5 -4 -33 -22 -61 -41 -29
-18 -52 -35 -52 -38 0 -5 11 1 92 54 31 21 39 23 57 11 28 -17 27 -25 -7 -42
-16 -8 -35 -22 -42 -31 -8 -10 7 -3 33 15 40 27 54 31 83 26 19 -4 33 -10 30
-14 -2 -4 24 -6 57 -5 88 3 98 -3 54 -33 -20 -13 -37 -27 -37 -30 0 -6 9 -1
59 33 36 25 139 34 125 12 -4 -8 0 -7 15 1 12 6 38 10 59 8 l36 -3 -49 -32
c-28 -18 -46 -33 -42 -33 4 0 31 16 60 35 35 24 63 35 87 35 34 -1 34 -1 15
-16 -77 -60 -78 -67 -1 -12 32 23 49 28 95 27 51 0 54 -1 36 -14 -11 -8 -29
-22 -40 -31 -16 -13 -14 -13 10 1 17 10 39 24 50 32 24 16 109 18 99 2 -5 -8
-1 -8 14 0 11 6 37 11 58 11 33 0 35 -2 23 -17 -13 -16 -13 -16 11 0 29 20
115 24 104 4 -6 -9 -4 -9 7 0 7 7 29 13 49 13 l35 -1 -40 -36 -40 -35 51 36
c34 24 63 36 85 36 l33 0 -35 -37 -34 -37 43 37 c31 28 51 37 78 37 23 0 33
-4 28 -11 -5 -8 -1 -8 14 0 27 15 85 15 76 0 -5 -8 -1 -8 14 0 11 6 38 11 59
11 l38 0 -25 -21 c-25 -21 -25 -21 11 0 39 23 136 31 123 10 -5 -8 -1 -8 13 0
11 6 55 10 96 10 42 0 82 3 88 7 7 4 9 3 5 -4 -3 -6 15 1 41 14 94 48 138 127
152 267 11 117 -5 1535 -18 1582 -12 45 -60 98 -104 114 -32 12 -165 12 -1157
-1z m1170 -498 l0 -360 -95 0 -95 0 0 96 0 96 -32 -8 c-18 -4 -114 -9 -213 -9
-99 -1 -188 -3 -198 -3 -17 -2 -18 -9 -12 -87 l7 -85 -55 0 -55 0 15 31 c13
27 14 68 8 305 l-7 274 -47 0 c-25 0 -203 5 -395 11 -191 6 -390 8 -442 4
l-93 -7 6 -309 6 -309 -82 0 -81 0 0 360 0 360 930 0 930 0 0 -360z m-999 233
l246 -6 1 -131 c1 -72 4 -183 8 -247 7 -126 -3 -181 -36 -199 -12 -6 -185 -10
-453 -10 l-434 0 -6 83 c-4 45 -7 180 -7 300 l0 217 218 0 c119 0 328 -3 463
-7z m789 -515 l0 -78 -199 0 c-227 0 -211 -7 -211 93 l0 62 205 0 205 0 0 -77z
m293 -515 c8 -449 0 -522 -71 -596 -61 -65 -26 -62 -707 -65 -701 -3 -1026 6
-1093 33 -50 21 -88 62 -101 113 -11 42 -38 478 -45 720 l-5 162 1008 0 1008
0 6 -367z"/>
<path d="M2795 2423 c-51 -13 -55 -27 -55 -177 1 -148 4 -162 49 -186 30 -15
216 -25 295 -16 81 11 90 27 95 183 1 68 0 135 -3 149 -11 43 -57 54 -218 53
-79 -1 -152 -4 -163 -6z m339 -37 l29 -18 -6 -127 c-6 -141 -10 -157 -40 -168
-33 -11 -278 -6 -310 6 -44 17 -50 45 -42 185 l7 126 32 10 c17 5 92 8 166 7
114 -2 141 -5 164 -21z"/>
<path d="M2933 2365 c-34 -14 -53 -41 -53 -74 0 -26 54 -61 93 -61 57 0 88 73
50 118 -25 28 -52 33 -90 17z"/>
<path d="M2915 2190 c-21 -5 -7 -8 50 -8 54 0 72 3 55 8 -31 10 -66 10 -105 0z"/>
<path d="M2857 2153 c-3 -5 46 -8 109 -8 63 0 114 3 114 8 0 4 -49 7 -109 7
-61 0 -112 -3 -114 -7z"/>
<path d="M2925 2120 c-14 -6 -5 -8 32 -7 29 1 53 5 53 10 0 10 -60 8 -85 -3z"/>
<path d="M1740 2302 c0 -22 3 -86 6 -144 l7 -105 130 -6 c162 -8 162 -8 152
88 -21 203 -18 189 -45 196 -14 4 -76 7 -137 8 l-113 1 0 -38z m255 7 c5 -5
12 -40 16 -77 4 -37 10 -85 13 -107 11 -67 3 -70 -131 -67 -65 2 -121 7 -124
10 -4 4 -9 65 -13 135 l-6 128 118 -6 c64 -4 121 -11 127 -16z"/>
<path d="M2138 2303 c34 -2 88 -2 120 0 31 2 3 3 -63 3 -66 0 -92 -1 -57 -3z"/>
<path d="M2155 2270 c102 -11 185 -11 160 0 -11 5 -67 8 -125 8 -103 -1 -104
-1 -35 -8z"/>
<path d="M2163 2173 c48 -2 125 -2 170 0 45 1 6 3 -88 3 -93 0 -130 -2 -82 -3z"/>
<path d="M2100 2130 c0 -6 28 -10 65 -10 37 0 65 4 65 10 0 6 -28 10 -65 10
-37 0 -65 -4 -65 -10z"/>
<path d="M2270 2130 c0 -6 47 -10 120 -10 73 0 120 4 120 10 0 6 -47 10 -120
10 -73 0 -120 -4 -120 -10z"/>
<path d="M2091 2065 c8 -8 347 -10 342 -2 -2 4 -81 7 -175 7 -94 0 -169 -2
-167 -5z"/>
<path d="M1930 1920 c-178 -5 -175 -6 90 -7 151 0 320 3 375 7 84 6 70 7 -90
6 -104 0 -273 -3 -375 -6z"/>
<path d="M2130 1870 c0 -6 65 -9 178 -9 127 1 162 4 122 9 -84 12 -300 12
-300 0z"/>
<path d="M1824 1859 c32 -5 111 -5 175 0 l116 8 -175 0 c-135 1 -162 -1 -116
-8z"/>
<path d="M2786 1882 c-3 -5 46 -8 108 -8 63 1 109 4 103 8 -16 11 -205 10
-211 0z"/>
<path d="M2797 1830 c4 -4 55 -10 113 -13 62 -3 91 -2 70 3 -48 11 -193 19
-183 10z"/>
<path d="M2005 1639 c-209 -5 -409 -12 -444 -15 l-63 -6 5 -121 c4 -104 29
-350 43 -424 2 -12 13 -27 25 -33 13 -8 252 -13 752 -16 403 -2 747 -7 765
-10 65 -10 144 6 175 37 l28 29 -3 264 c-3 230 -5 268 -19 282 -15 14 -65 16
-450 19 -239 2 -605 -1 -814 -6z m537 -45 c2 -28 -1 -48 -8 -51 -6 -2 -38 -3
-70 -1 l-59 3 -3 42 -3 42 53 4 c29 2 60 4 69 5 13 2 18 -8 21 -44z m131 10
c9 -56 2 -64 -59 -64 l-54 0 0 50 0 50 54 0 53 0 6 -36z m122 -14 l0 -45 -52
-3 -53 -3 0 51 0 51 53 -3 52 -3 0 -45z m133 -2 l3 -48 -60 0 -61 0 0 50 0 51
58 -3 57 -3 3 -47z m-794 20 c3 -13 6 -33 6 -45 0 -22 -4 -23 -65 -23 l-65 0
0 39 c0 39 1 40 38 44 78 8 79 8 86 -15z m130 10 c3 -7 7 -28 10 -45 l6 -33
-65 0 -65 0 0 45 0 45 55 0 c36 0 57 -4 59 -12z m126 -33 l0 -45 -49 0 c-46 0
-49 1 -55 31 -11 58 -10 59 49 59 l55 0 0 -45z m670 0 l0 -45 -60 0 -60 0 0
45 0 45 60 0 60 0 0 -45z m188 29 c14 -10 22 -25 22 -45 l0 -29 -100 0 -100 0
0 45 0 45 78 0 c54 0 84 -5 100 -16z m-1583 -39 l0 -40 -78 -3 -78 -3 3 38 c3
36 5 38 43 44 22 4 56 6 75 5 34 -1 35 -2 35 -41z m175 0 l0 -45 -80 0 -80 0
0 45 0 45 80 0 80 0 0 -45z m150 0 l0 -45 -70 0 -70 0 0 45 0 45 70 0 70 0 0
-45z m210 -96 l6 -46 -70 -6 c-39 -4 -72 -4 -74 -2 -3 2 -7 24 -9 49 l-5 45
53 4 c95 7 93 7 99 -44z m130 1 l0 -50 -54 0 c-59 0 -66 7 -66 66 l0 34 60 0
60 0 0 -50z m150 0 l0 -50 -64 0 c-70 0 -76 5 -76 66 l0 34 70 0 70 0 0 -50z
m144 8 c-4 -24 -7 -43 -8 -44 -1 -1 -29 -4 -63 -7 l-63 -7 0 28 c0 66 7 72 76
72 l64 0 -6 -42z m106 -3 l0 -45 -51 0 c-43 0 -50 3 -45 16 3 9 6 29 6 45 0
28 2 29 45 29 l45 0 0 -45z m130 0 l0 -45 -60 0 -60 0 0 45 0 45 60 0 60 0 0
-45z m130 0 l0 -45 -55 0 -55 0 0 45 0 45 55 0 55 0 0 -45z m284 8 c3 -21 6
-73 6 -115 l0 -78 -74 0 -73 0 -7 38 c-3 20 -6 49 -6 64 0 24 -4 26 -60 33
l-60 7 0 44 0 44 134 0 133 0 7 -37z m-1530 5 c3 -13 6 -35 6 -49 0 -27 0 -27
-105 -34 -124 -8 -135 -3 -135 61 l0 44 114 0 c109 0 114 -1 120 -22z m156
-28 l0 -50 -70 0 -70 0 0 50 0 50 70 0 70 0 0 -50z m140 0 l0 -50 -59 0 c-65
0 -71 6 -71 66 l0 34 65 0 65 0 0 -50z m723 -47 c3 -5 8 -32 12 -62 l7 -54
-93 6 c-51 4 -93 8 -94 10 -2 1 -6 23 -9 49 l-7 47 73 4 c40 1 81 4 90 5 9 1
19 -1 21 -5z m174 -6 c3 -4 8 -29 11 -57 l5 -50 -80 0 -80 0 -6 51 c-4 29 -4
56 0 62 6 10 139 4 150 -6z m-657 -47 l0 -50 -39 0 c-22 0 -52 4 -66 10 -22 8
-26 15 -23 42 3 35 22 45 91 47 l37 1 0 -50z m144 28 c3 -13 6 -35 6 -50 0
-28 -1 -28 -65 -28 l-65 0 0 50 0 50 59 0 c52 0 59 -2 65 -22z m146 3 c0 -10
3 -33 6 -50 l7 -31 -71 0 -70 0 -4 50 -3 50 68 0 c59 0 67 -2 67 -19z m540
-36 l0 -55 -74 0 -74 0 -4 55 -3 55 78 0 77 0 0 -55z m-1272 -1 l3 -41 -62 -7
c-34 -3 -104 -6 -155 -6 -73 0 -94 3 -94 14 0 7 -3 27 -6 44 l-6 31 88 4 c49
2 121 3 159 3 l70 -1 3 -41z m152 1 l0 -45 -70 0 -70 0 0 45 0 45 70 0 70 0 0
-45z m150 6 l0 -38 -61 -7 c-34 -3 -65 -3 -70 0 -5 3 -9 23 -9 45 l0 39 70 0
70 0 0 -39z m-190 -116 l0 -55 -75 0 -75 0 0 49 c0 30 5 51 13 54 6 3 40 6 75
6 l62 1 0 -55z m153 8 c3 -27 2 -52 -2 -56 -5 -4 -37 -7 -72 -5 l-64 3 -3 53
-3 52 69 0 69 0 6 -47z m127 -2 l0 -48 -52 -6 c-29 -2 -54 -4 -54 -3 -1 0 -4
25 -8 54 l-7 52 61 0 60 0 0 -49z m130 -1 l0 -50 -57 0 -58 0 3 50 4 50 54 0
54 0 0 -50z m148 21 c2 -12 1 -34 -2 -47 -6 -22 -11 -24 -66 -24 l-60 0 0 50
0 51 63 -3 c56 -3 62 -5 65 -27z m143 19 l39 0 0 -51 c0 -48 -1 -51 -22 -45
-13 3 -52 6 -88 6 l-65 0 4 51 3 51 45 -6 c25 -3 63 -6 84 -6z m-861 -50 l0
-51 -122 3 -123 3 -3 48 -3 47 125 0 126 0 0 -50z m1078 -3 l3 -48 -83 3 -83
3 -3 48 -3 48 83 -3 83 -3 3 -48z m295 43 l117 0 0 -50 0 -50 -57 0 c-32 0
-122 3 -200 7 l-143 6 0 50 0 50 83 -6 c45 -4 135 -7 200 -7z m-1413 -159 c0
-33 3 -66 6 -75 5 -14 -6 -16 -80 -16 -109 0 -126 13 -126 95 l0 55 100 0 100
0 0 -59z m186 43 c-3 -9 -6 -42 -6 -75 l0 -59 -79 0 -79 0 -7 30 c-3 16 -3 49
0 75 l7 45 85 0 c74 0 84 -2 79 -16z m634 -65 l0 -82 -92 7 c-50 3 -189 6
-309 6 l-218 0 -6 44 c-4 24 -4 58 0 75 l7 31 309 0 309 0 0 -81z m182 4 l2
-78 3 78 4 77 84 0 85 0 0 -80 0 -80 -175 0 -175 0 0 80 0 80 85 0 85 0 2 -77z
m316 67 c21 0 22 -4 22 -75 l0 -75 -75 0 -75 0 0 81 0 82 53 -7 c28 -3 62 -6
75 -6z m210 -51 c-7 -71 -30 -92 -110 -97 l-63 -4 0 76 -1 76 89 0 90 0 -5
-51z"/>
<path d="M3108 1583 c6 -2 18 -2 25 0 6 3 1 5 -13 5 -14 0 -19 -2 -12 -5z"/>
<path d="M3213 1470 c-6 -17 -7 -30 -2 -30 9 0 24 48 17 55 -2 2 -9 -9 -15
-25z"/>
<path d="M1598 1243 c12 -2 30 -2 40 0 9 3 -1 5 -23 4 -22 0 -30 -2 -17 -4z"/>
<path d="M2910 1259 c0 -5 5 -7 10 -4 6 3 10 8 10 11 0 2 -4 4 -10 4 -5 0 -10
-5 -10 -11z"/>
<path d="M2478 1153 c12 -2 32 -2 45 0 12 2 2 4 -23 4 -25 0 -35 -2 -22 -4z"/>
<path d="M2838 1103 c6 -2 18 -2 25 0 6 3 1 5 -13 5 -14 0 -19 -2 -12 -5z"/>
<path d="M3010 1136 c0 -9 5 -16 10 -16 6 0 10 4 10 9 0 6 -4 13 -10 16 -5 3
-10 -1 -10 -9z"/>
<path d="M3022 1070 c0 -14 2 -19 5 -12 2 6 2 18 0 25 -3 6 -5 1 -5 -13z"/>
<path d="M3158 1103 c7 -3 16 -2 19 1 4 3 -2 6 -13 5 -11 0 -14 -3 -6 -6z"/>
<path d="M2244 965 c-3 -11 -4 -63 -2 -115 4 -114 -7 -108 191 -109 134 -1
139 0 162 24 21 20 25 35 27 87 2 82 -1 111 -13 123 -5 5 -86 9 -185 10 -167
0 -175 -1 -180 -20z m357 -16 c6 -13 9 -50 7 -90 -6 -103 -8 -105 -186 -101
-105 2 -150 6 -160 15 -10 11 -11 35 -6 105 l7 92 163 0 c156 0 164 -1 175
-21z"/>
<path d="M3367 947 c3 -13 -2 -40 -11 -60 -8 -20 -11 -37 -6 -37 11 0 30 57
30 91 0 16 -4 29 -9 29 -4 0 -6 -10 -4 -23z"/>
<path d="M1511 872 c0 -14 11 -36 28 -53 23 -23 38 -29 68 -28 l38 1 -38 8
c-42 8 -84 42 -90 74 -4 20 -4 19 -6 -2z"/>
<path d="M3275 785 c-31 -25 -28 -33 4 -15 10 5 21 16 25 25 7 19 7 19 -29
-10z"/>
<path d="M1310 1700 c-9 -6 -10 -10 -3 -10 6 0 15 5 18 10 8 12 4 12 -15 0z"/>
<path d="M4105 1660 c-148 -4 -284 -10 -301 -14 -17 -4 -42 -18 -54 -31 l-23
-25 6 -352 c4 -196 11 -370 17 -391 18 -63 44 -72 191 -69 l126 2 22 -158 c30
-218 43 -420 35 -529 l-6 -93 172 0 173 0 -7 167 c-4 93 -11 231 -16 308 -6
77 -10 177 -10 221 l0 82 75 7 c44 4 92 15 117 28 68 35 70 48 58 401 -12 339
-19 392 -56 427 -24 22 -34 24 -137 25 -62 1 -233 -2 -382 -6z m490 -22 c13
-6 29 -25 35 -43 13 -41 29 -340 30 -556 0 -152 -2 -169 -20 -192 -26 -33 -91
-47 -217 -47 l-96 0 21 23 c44 47 76 137 80 229 5 99 -2 138 -23 138 -11 0
-15 12 -15 43 0 104 -50 194 -125 228 -51 24 -89 23 -141 0 -82 -37 -133 -144
-141 -296 -3 -49 -1 -106 4 -126 10 -35 10 -35 -17 -31 -22 3 -32 -2 -45 -22
-16 -24 -16 -28 -1 -51 18 -27 55 -49 101 -59 36 -8 95 -42 95 -55 0 -11 -133
-31 -209 -31 -76 0 -120 16 -133 49 -14 32 -29 739 -17 762 5 9 16 20 26 24
10 5 165 11 346 15 180 4 331 10 335 14 9 10 95 -1 127 -16z m-365 -178 c43
-12 93 -61 115 -112 20 -50 31 -179 17 -204 -9 -15 -10 -7 -5 33 4 40 2 59
-11 78 -34 51 -76 19 -93 -70 -7 -38 -7 -37 -13 27 -4 56 -10 72 -32 94 -51
52 -84 3 -74 -111 l6 -70 -31 57 c-33 60 -60 78 -84 58 -23 -19 -18 -61 15
-138 33 -78 39 -132 15 -132 -8 0 -22 15 -32 33 -26 47 -25 233 1 302 30 78
66 126 111 146 47 22 49 22 95 9z m-23 -180 c7 -14 13 -47 13 -75 0 -58 17
-125 31 -125 15 0 31 51 24 77 -9 38 13 105 33 101 14 -3 18 -19 22 -98 4 -76
8 -95 20 -95 9 0 19 16 26 44 6 25 16 47 24 49 10 4 12 -14 7 -89 -6 -107 -23
-164 -70 -225 l-32 -43 -77 -1 c-68 0 -77 2 -83 20 -8 26 -49 54 -111 74 -54
18 -97 50 -91 69 6 19 44 20 69 3 33 -23 67 -20 79 7 8 18 6 36 -11 83 -39
106 -51 157 -40 168 15 15 46 -21 67 -78 29 -78 43 -71 43 22 0 104 8 144 29
140 8 -2 21 -14 28 -28z"/>
<path d="M1304 1604 c-18 -14 -18 -15 4 -4 12 6 22 13 22 15 0 8 -5 6 -26 -11z"/>
<path d="M1354 1584 c-18 -14 -18 -15 4 -4 12 6 22 13 22 15 0 8 -5 6 -26 -11z"/>
<path d="M432 1494 c-12 -8 -22 -22 -22 -30 0 -21 28 -72 62 -115 l28 -35 -20
-47 c-15 -33 -25 -44 -36 -40 -8 3 -24 -3 -35 -13 -20 -18 -21 -26 -15 -124 4
-58 9 -118 12 -133 7 -36 103 -108 174 -132 42 -14 50 -21 50 -41 0 -17 -6
-24 -19 -24 -29 0 -31 -11 -21 -76 5 -32 19 -158 30 -279 11 -121 25 -262 31
-312 l11 -93 169 0 c129 0 169 3 169 13 0 6 -9 62 -20 124 -21 122 -40 382
-40 562 0 108 -1 113 -20 108 -38 -10 -21 24 44 90 46 47 68 78 76 109 15 53
6 124 -21 157 -10 14 -22 45 -25 70 -9 65 -45 128 -92 161 -57 40 -160 47
-247 17 l-60 -20 -15 22 c-28 43 -88 97 -107 97 -10 0 -29 -7 -41 -16z m106
-63 l43 -53 -33 -24 -33 -23 -32 37 c-61 70 -69 126 -16 120 18 -2 41 -20 71
-57z m287 -22 c149 -41 198 -229 99 -378 -58 -88 -208 -119 -320 -67 -161 75
-169 306 -14 402 78 48 161 63 235 43z m-364 -259 c8 -71 20 -99 60 -144 62
-71 155 -99 261 -77 103 22 178 91 204 189 l12 47 17 -39 c12 -29 15 -52 10
-85 -10 -64 -27 -93 -86 -142 -31 -27 -53 -54 -56 -71 -4 -21 -13 -29 -37 -33
-180 -32 -187 -33 -193 -16 -10 35 -20 44 -66 61 -27 10 -73 37 -102 59 -60
46 -60 45 -70 198 -7 98 -3 116 23 111 12 -2 19 -18 23 -58z m386 -376 c-3 -3
-12 -4 -19 -1 -8 3 -5 6 6 6 11 1 17 -2 13 -5z"/>
<path d="M655 1336 c-156 -68 -145 -283 17 -326 88 -24 177 13 216 90 40 80
25 171 -37 223 -28 24 -41 27 -99 27 -37 -1 -80 -7 -97 -14z m55 -51 c0 -8 -7
-15 -15 -15 -8 0 -15 7 -15 15 0 8 7 15 15 15 8 0 15 -7 15 -15z m-46 -48 c8
-12 6 -21 -7 -35 -9 -10 -17 -26 -17 -35 0 -25 -29 -21 -39 6 -14 36 16 92 43
84 5 -2 14 -11 20 -20z"/>
<path d="M1274 1484 c-18 -14 -18 -15 4 -4 12 6 22 13 22 15 0 8 -5 6 -26 -11z"/>
<path d="M1296 1285 c-11 -8 -15 -15 -9 -15 6 0 16 7 23 15 16 19 11 19 -14 0z"/>
<path d="M1345 1244 l-30 -26 33 22 c17 12 32 23 32 26 0 7 -4 5 -35 -22z"/>
<path d="M1364 1124 c-18 -14 -18 -15 4 -4 12 6 22 13 22 15 0 8 -5 6 -26 -11z"/>
<path d="M1299 1083 c-13 -16 -12 -17 4 -4 16 13 21 21 13 21 -2 0 -10 -8 -17
-17z"/>
<path d="M1344 1044 c-18 -14 -18 -15 4 -4 12 6 22 13 22 15 0 8 -5 6 -26 -11z"/>
<path d="M1363 748 c-34 -23 -60 -44 -58 -46 3 -3 94 58 120 80 24 21 -7 4
-62 -34z"/>
<path d="M1513 629 c-35 -22 -46 -37 -15 -20 22 13 58 40 52 41 -3 0 -20 -10
-37 -21z"/>
<path d="M1798 629 c-21 -11 -38 -22 -38 -24 0 -3 18 4 40 15 22 11 40 23 40
25 0 7 0 7 -42 -16z"/>
<path d="M2459 633 c-13 -16 -12 -17 4 -4 16 13 21 21 13 21 -2 0 -10 -8 -17
-17z"/>
<path d="M2804 634 c-18 -14 -18 -15 4 -4 12 6 22 13 22 15 0 8 -5 6 -26 -11z"/>
<path d="M1609 623 c-13 -16 -12 -17 4 -4 16 13 21 21 13 21 -2 0 -10 -8 -17
-17z"/>
<path d="M3004 624 c-18 -14 -18 -15 4 -4 12 6 22 13 22 15 0 8 -5 6 -26 -11z"/>
</g>
</svg>
