<?xml version="1.0" standalone="no"?>
<!DOCTYPE svg PUBLIC "-//W3C//DTD SVG 20010904//EN"
 "http://www.w3.org/TR/2001/REC-SVG-20010904/DTD/svg10.dtd">
<svg version="1.0" xmlns="http://www.w3.org/2000/svg"
 width="1300.000000pt" height="1300.000000pt" viewBox="0 0 1300.000000 1300.000000"
 preserveAspectRatio="xMidYMid meet">

<g transform="translate(0.000000,1300.000000) scale(0.100000,-0.100000)"
fill="#000000" stroke="none">
<path d="M6946 8465 c-57 -20 -80 -49 -121 -150 -46 -111 -167 -409 -250 -615
-72 -178 -326 -798 -348 -850 -8 -19 -16 -38 -16 -42 -1 -4 -11 -29 -22 -55
-12 -27 -61 -147 -111 -268 -49 -121 -123 -303 -165 -405 -112 -274 -115 -284
-95 -269 9 8 7 2 -6 -12 -22 -25 -50 -87 -131 -289 -21 -52 -64 -158 -96 -235
-31 -77 -85 -210 -120 -295 -35 -85 -71 -173 -80 -195 -29 -65 -35 -106 -23
-153 12 -50 62 -98 110 -107 18 -4 144 -5 280 -3 232 3 248 4 275 24 39 29 68
74 102 162 17 43 51 127 77 187 40 95 72 172 189 455 12 30 38 93 58 140 19
47 69 168 112 270 78 187 95 227 158 380 19 47 81 195 137 330 57 135 113 270
125 300 101 249 139 341 156 379 11 24 44 103 74 175 29 72 74 181 100 241 26
61 49 117 52 125 4 8 47 112 96 230 49 118 102 247 118 285 42 99 45 141 17
189 -48 81 -46 81 -346 83 -210 2 -275 0 -306 -12z m164 -1368 c0 -2 -10 -12
-22 -23 l-23 -19 19 23 c18 21 26 27 26 19z m-579 -580 c-6 -8 -9 -16 -6 -19
3 -2 -2 -5 -10 -5 -13 0 -13 3 2 19 19 21 31 25 14 5z m34 -57 c10 -11 16 -20
13 -20 -3 0 -13 9 -23 20 -10 11 -16 20 -13 20 3 0 13 -9 23 -20z"/>
<path d="M8118 8070 c-52 -16 -84 -47 -102 -102 -17 -49 -18 -75 -10 -321 l9
-267 35 -34 c25 -24 80 -52 190 -96 85 -34 225 -91 310 -126 85 -34 211 -85
280 -112 69 -28 249 -100 400 -161 151 -62 339 -137 418 -168 78 -31 142 -60
142 -64 0 -4 -10 -11 -22 -15 -21 -6 -85 -32 -283 -116 -38 -16 -83 -36 -100
-43 -16 -7 -55 -23 -85 -35 -30 -12 -91 -37 -135 -56 -91 -40 -109 -48 -335
-142 -588 -247 -728 -307 -753 -324 -55 -39 -57 -52 -57 -358 0 -307 1 -314
59 -363 17 -14 48 -28 70 -32 42 -7 80 7 371 135 47 21 155 68 240 105 85 36
173 75 195 85 23 10 90 39 150 65 195 82 269 118 285 134 8 10 11 11 5 3 -8
-12 -3 -12 25 1 52 21 634 274 720 312 41 18 118 51 170 74 52 22 147 63 210
91 63 28 138 60 165 71 105 42 160 75 183 109 23 34 23 35 20 310 -3 272 -3
275 -27 309 -26 35 -103 77 -123 65 -6 -4 -8 -3 -5 3 4 6 -5 16 -21 21 -15 6
-81 33 -147 60 -193 81 -483 201 -570 237 -171 70 -456 189 -590 245 -77 32
-185 77 -240 100 -55 22 -125 52 -155 65 -30 13 -183 76 -340 141 -562 231
-500 210 -552 194z"/>
<path d="M4765 8041 c-47 -17 -215 -88 -295 -125 -19 -8 -226 -97 -460 -197
-234 -99 -438 -187 -455 -194 -16 -8 -205 -89 -420 -180 -214 -91 -424 -181
-465 -199 -41 -19 -141 -62 -222 -96 -81 -35 -145 -66 -143 -71 3 -4 -3 -5
-12 -3 -10 3 -47 -10 -82 -28 -103 -53 -102 -50 -99 -380 l3 -278 35 -34 c33
-33 291 -146 1195 -523 72 -29 159 -67 195 -82 65 -28 130 -55 140 -57 3 0 32
-13 65 -28 33 -16 96 -43 140 -61 120 -49 813 -342 869 -368 62 -28 122 -27
170 2 70 44 71 51 68 370 -3 296 -6 314 -49 353 -10 9 -68 37 -128 62 -61 24
-189 77 -285 116 -96 40 -247 101 -335 137 -88 36 -236 97 -330 135 -93 39
-242 99 -330 135 -154 63 -252 103 -305 125 -24 10 -21 12 50 45 41 19 86 39
100 43 14 5 70 27 125 50 222 94 410 172 515 215 282 116 484 200 530 220 30
13 100 42 155 65 164 67 179 73 212 94 62 40 63 45 63 359 0 278 0 285 -23
318 -22 33 -96 79 -127 79 -8 -1 -37 -9 -65 -19z m-2320 -1201 c10 -11 16 -20
13 -20 -3 0 -13 9 -23 20 -10 11 -16 20 -13 20 3 0 13 -9 23 -20z m80 -80 c10
-11 16 -20 13 -20 -3 0 -13 9 -23 20 -10 11 -16 20 -13 20 3 0 13 -9 23 -20z
m80 -80 c10 -11 16 -20 13 -20 -3 0 -13 9 -23 20 -10 11 -16 20 -13 20 3 0 13
-9 23 -20z m80 -80 c10 -11 16 -20 13 -20 -3 0 -13 9 -23 20 -10 11 -16 20
-13 20 3 0 13 -9 23 -20z m80 -80 c10 -11 16 -20 13 -20 -3 0 -13 9 -23 20
-10 11 -16 20 -13 20 3 0 13 -9 23 -20z m85 -85 c13 -14 21 -25 18 -25 -2 0
-15 11 -28 25 -13 14 -21 25 -18 25 2 0 15 -11 28 -25z m75 -75 c10 -11 16
-20 13 -20 -3 0 -13 9 -23 20 -10 11 -16 20 -13 20 3 0 13 -9 23 -20z m80 -80
c10 -11 16 -20 13 -20 -3 0 -13 9 -23 20 -10 11 -16 20 -13 20 3 0 13 -9 23
-20z m80 -80 c10 -11 16 -20 13 -20 -3 0 -13 9 -23 20 -10 11 -16 20 -13 20 3
0 13 -9 23 -20z m80 -80 c10 -11 16 -20 13 -20 -3 0 -13 9 -23 20 -10 11 -16
20 -13 20 3 0 13 -9 23 -20z m80 -80 c10 -11 16 -20 13 -20 -3 0 -13 9 -23 20
-10 11 -16 20 -13 20 3 0 13 -9 23 -20z m80 -80 c10 -11 16 -20 13 -20 -3 0
-13 9 -23 20 -10 11 -16 20 -13 20 3 0 13 -9 23 -20z m80 -80 c10 -11 16 -20
13 -20 -3 0 -13 9 -23 20 -10 11 -16 20 -13 20 3 0 13 -9 23 -20z m80 -80 c10
-11 16 -20 13 -20 -3 0 -13 9 -23 20 -10 11 -16 20 -13 20 3 0 13 -9 23 -20z
m85 -85 c13 -14 21 -25 18 -25 -2 0 -15 11 -28 25 -13 14 -21 25 -18 25 2 0
15 -11 28 -25z m80 -80 c13 -14 21 -25 18 -25 -2 0 -15 11 -28 25 -13 14 -21
25 -18 25 2 0 15 -11 28 -25z"/>
</g>
</svg>
