<?xml version="1.0" standalone="no"?>
<!DOCTYPE svg PUBLIC "-//W3C//DTD SVG 20010904//EN"
 "http://www.w3.org/TR/2001/REC-SVG-20010904/DTD/svg10.dtd">
<svg version="1.0" xmlns="http://www.w3.org/2000/svg"
 width="225.000000pt" height="225.000000pt" viewBox="0 0 225.000000 225.000000"
 preserveAspectRatio="xMidYMid meet">

<g transform="translate(0.000000,225.000000) scale(0.100000,-0.100000)"
fill="#000000" stroke="none">
<path d="M305 1875 l-25 -24 0 -514 c0 -492 1 -516 19 -538 l19 -24 807 0 807
0 19 24 c18 22 19 46 19 538 l0 514 -25 24 -24 25 -796 0 -796 0 -24 -25z
m1007 -212 c35 -31 21 -70 -130 -368 -163 -321 -176 -338 -229 -299 -15 12
-29 32 -31 46 -2 17 46 123 144 319 80 162 151 300 156 307 15 17 68 15 90 -5z
m-498 -64 c18 -14 26 -30 26 -52 0 -27 -14 -46 -90 -122 l-90 -90 91 -91 c82
-82 90 -94 87 -124 -2 -22 -12 -40 -30 -53 -40 -30 -70 -12 -202 123 -92 94
-116 124 -116 146 0 23 25 53 128 156 82 82 135 128 149 128 11 0 32 -9 47
-21z m818 -107 c103 -103 128 -133 128 -156 0 -22 -24 -52 -112 -143 -146
-149 -176 -164 -223 -113 -36 39 -23 66 74 164 l91 91 -90 90 c-76 76 -90 95
-90 122 0 35 38 73 73 73 14 0 67 -46 149 -128z"/>
<path d="M238 618 c-9 -7 -50 -65 -92 -128 -84 -127 -92 -156 -50 -189 27 -21
30 -21 1026 -21 734 0 1005 3 1021 11 55 29 50 57 -34 185 -40 60 -81 119 -92
132 l-20 22 -872 0 c-682 0 -875 -3 -887 -12z"/>
</g>
</svg>
