<?xml version="1.0" standalone="no"?>
<!DOCTYPE svg PUBLIC "-//W3C//DTD SVG 20010904//EN"
 "http://www.w3.org/TR/2001/REC-SVG-20010904/DTD/svg10.dtd">
<svg version="1.0" xmlns="http://www.w3.org/2000/svg"
 width="512.000000pt" height="512.000000pt" viewBox="0 0 512.000000 512.000000"
 preserveAspectRatio="xMidYMid meet">

<g transform="translate(0.000000,512.000000) scale(0.100000,-0.100000)"
fill="#000000" stroke="none">
<path d="M2689 4837 c-80 -27 -209 -104 -293 -173 -143 -118 -216 -277 -218
-475 -1 -164 42 -281 135 -365 l49 -44 -11 -63 c-24 -134 -32 -245 -38 -563
l-6 -332 -41 -5 c-23 -3 -44 -3 -48 1 -3 4 -36 203 -73 442 -79 519 -97 615
-135 726 -32 95 -63 152 -126 234 -75 99 -155 160 -209 160 -96 0 -169 -250
-168 -575 1 -250 51 -694 103 -914 17 -68 30 -124 30 -126 0 -1 -20 -10 -44
-19 -65 -25 -71 -47 -70 -251 1 -187 8 -257 109 -1000 35 -258 73 -551 84
-651 29 -257 66 -357 159 -434 99 -81 178 -96 594 -115 580 -26 650 -21 733
47 70 59 81 97 160 568 136 815 233 1643 211 1794 -8 53 -34 86 -68 86 -52 1
-52 -7 57 495 60 274 105 503 105 534 0 75 -17 125 -62 176 -138 157 -389 96
-469 -114 -12 -31 -59 -220 -105 -421 -46 -201 -98 -427 -116 -503 l-32 -138
-30 3 -31 3 -17 415 c-9 228 -19 438 -22 466 l-6 50 59 61 c63 65 91 127 91
204 0 52 -24 160 -55 249 -36 100 -32 204 9 300 56 132 69 178 60 212 -22 75
-131 99 -255 55z m151 -93 c0 -3 -16 -41 -35 -85 -77 -175 -83 -292 -25 -449
60 -160 51 -261 -26 -330 l-35 -30 -41 21 c-46 23 -161 29 -211 10 -40 -16
-43 -15 -86 24 -134 121 -131 422 5 601 52 68 205 176 313 220 51 21 141 33
141 18z m-1088 -531 c75 -81 158 -221 158 -266 0 -15 -205 -67 -264 -67 l-37
0 6 58 c18 162 57 322 79 322 7 0 33 -21 58 -47z m1745 -259 c40 -26 63 -74
63 -132 0 -48 -26 -201 -36 -211 -2 -3 -79 4 -170 14 l-166 18 6 38 c12 72 57
198 81 228 39 46 102 73 154 66 25 -3 55 -12 68 -21z m-1523 -291 c31 -192
114 -734 123 -805 3 -28 2 -48 -4 -48 -27 0 -283 -21 -310 -25 -32 -6 -32 -6
-52 62 -11 37 -27 104 -35 148 -26 133 -86 643 -86 733 l0 39 63 7 c34 4 103
17 152 30 50 13 97 25 106 25 13 1 21 -29 43 -166z m655 113 c15 -8 33 -27 40
-43 16 -32 55 -893 42 -906 -4 -4 -72 -6 -152 -5 l-144 3 1 265 c2 242 21 541
42 640 6 28 14 37 42 47 48 16 96 16 129 -1z m700 -256 c90 -11 166 -21 168
-23 2 -3 -30 -157 -70 -343 l-74 -339 -174 4 c-96 2 -175 5 -177 6 -3 2 81
380 153 693 3 12 6 22 8 22 1 0 76 -9 166 -20z m-234 -810 c171 -5 325 -12
343 -16 31 -6 32 -8 32 -58 l0 -52 -150 -29 c-162 -30 -188 -43 -176 -89 11
-45 33 -48 167 -21 169 35 156 39 148 -51 -4 -42 -9 -77 -11 -78 -2 -2 -63
-10 -137 -19 -150 -18 -179 -32 -167 -81 9 -37 40 -41 177 -24 l119 14 -6 -66
c-4 -36 -9 -68 -13 -71 -3 -4 -71 -18 -150 -32 -160 -29 -189 -44 -177 -91 9
-38 43 -41 183 -17 69 12 127 20 129 18 5 -5 -22 -207 -28 -213 -2 -2 -67 -13
-144 -24 -114 -16 -142 -24 -156 -41 -22 -25 -22 -39 -4 -64 16 -22 40 -22
181 -1 54 8 101 13 104 11 2 -3 -1 -50 -8 -104 l-13 -99 -140 -7 c-148 -8
-168 -15 -168 -60 0 -50 19 -56 162 -48 l131 6 -6 -24 c-3 -13 -11 -64 -18
-112 -13 -97 -16 -100 -89 -111 -149 -22 -171 -28 -187 -52 -14 -22 -14 -26 1
-49 19 -29 50 -31 164 -11 l72 13 -1 -26 c0 -14 -6 -51 -12 -81 l-12 -55 -121
-15 c-67 -8 -129 -21 -138 -29 -22 -18 -20 -54 3 -76 18 -15 28 -16 102 -6 45
6 94 11 109 11 l27 0 -14 -82 c-8 -46 -25 -103 -36 -128 -42 -88 -81 -93 -542
-74 -521 20 -594 30 -672 90 -76 58 -103 140 -133 412 -12 103 -50 398 -85
657 -96 704 -124 989 -107 1065 8 34 10 35 72 47 145 25 368 37 1020 51 36 1
205 -3 375 -8z"/>
<path d="M2504 4521 c-114 -69 -164 -235 -130 -429 23 -130 37 -162 74 -162
16 0 37 9 46 19 17 19 17 24 -3 109 -42 178 -23 283 66 367 56 54 63 73 37 99
-21 21 -52 20 -90 -3z"/>
<path d="M1706 3634 c-9 -8 -16 -23 -16 -32 0 -8 20 -152 45 -319 25 -166 45
-305 45 -308 0 -2 11 -12 25 -21 23 -15 27 -15 50 0 18 12 25 25 25 49 0 64
-83 603 -97 625 -16 26 -54 29 -77 6z"/>
</g>
</svg>
